<svg width="100" height="56" viewBox="0 0 100 56" fill="none" xmlns="http://www.w3.org/2000/svg">
<g clip-path="url(#clip0_318_211)">
<path d="M14.4429 0.0644531H42.8376C46.4179 0.0644531 49.8515 1.48677 52.3832 4.01851C54.9149 6.55025 56.3371 9.98403 56.3371 13.5645C56.3371 21.0203 50.2932 27.0645 42.8376 27.0645H14.4429C6.98731 27.0645 0.943359 21.0203 0.943359 13.5645C0.943359 6.10861 6.98731 0.0644531 14.4429 0.0644531Z" fill="#CB3958"/>
</g>
<g clip-path="url(#clip1_318_211)">
<path d="M45.199 28.7842H86.1315C93.5875 28.7842 99.6317 34.8283 99.6317 42.2842C99.6317 45.8646 98.2094 49.2984 95.6776 51.8301C93.1458 54.3619 89.712 55.7842 86.1315 55.7842H45.199C37.743 55.7842 31.6987 49.74 31.6987 42.2842C31.6987 34.8283 37.743 28.7842 45.199 28.7842Z" fill="#F6D04A"/>
</g>
<g clip-path="url(#clip2_318_211)">
<path d="M16.3801 28.7842C8.91875 28.7842 2.87012 34.8328 2.87012 42.2942C2.87012 49.7555 8.91875 55.8042 16.3801 55.8042C23.8415 55.8042 29.8901 49.7555 29.8901 42.2942C29.8901 34.8328 23.8415 28.7842 16.3801 28.7842Z" fill="#5585C5"/>
</g>
<g clip-path="url(#clip3_318_211)">
<path d="M71.4003 0.0644531C63.9389 0.0644531 57.8903 6.11309 57.8903 13.5745C57.8903 21.0358 63.9389 27.0845 71.4003 27.0845C78.8616 27.0845 84.9103 21.0358 84.9103 13.5745C84.9103 6.11309 78.8616 0.0644531 71.4003 0.0644531Z" fill="#F4F4F4"/>
</g>
<defs>
<clipPath id="clip0_318_211">
<rect width="55.42" height="27" fill="white" transform="translate(0.930176 0.0644531)"/>
</clipPath>
<clipPath id="clip1_318_211">
<rect width="67.97" height="27" fill="white" transform="translate(31.6802 28.7842)"/>
</clipPath>
<clipPath id="clip2_318_211">
<rect width="27.02" height="27.02" fill="white" transform="translate(2.87012 28.7842)"/>
</clipPath>
<clipPath id="clip3_318_211">
<rect width="27.02" height="27.02" fill="white" transform="translate(57.8903 0.0644531)"/>
</clipPath>
</defs>
</svg>
