<svg width="40" height="23" viewBox="0 0 40 23" fill="none" xmlns="http://www.w3.org/2000/svg">
<g clip-path="url(#clip0_338_211)">
<path d="M33.8056 22.7637H22.5849C21.1701 22.7637 19.8132 22.2017 18.8127 21.2014C17.8123 20.2011 17.2503 18.8445 17.2503 17.4299C17.2503 14.4841 19.6387 12.096 22.5849 12.096H33.8056C36.7519 12.096 39.1403 14.4841 39.1403 17.4299C39.1403 20.3756 36.7519 22.7637 33.8056 22.7637Z" fill="#CB3958"/>
</g>
<g clip-path="url(#clip1_338_211)">
<path d="M21.6644 11.4238H5.4861C2.53918 11.4238 0.150234 9.03585 0.150234 6.09014C0.150234 4.67556 0.712402 3.31891 1.71307 2.31865C2.71374 1.31839 4.07094 0.756453 5.4861 0.756453H21.6644C24.6113 0.756453 27.0002 3.14443 27.0002 6.09014C27.0002 9.03585 24.6113 11.4238 21.6644 11.4238Z" fill="#F6D04A"/>
</g>
<g clip-path="url(#clip2_338_211)">
<path d="M33.0352 11.4248C35.9817 11.4248 38.3702 9.03624 38.3702 6.0898C38.3702 3.14337 35.9817 0.754805 33.0352 0.754805C30.0888 0.754805 27.7002 3.14337 27.7002 6.0898C27.7002 9.03624 30.0888 11.4248 33.0352 11.4248Z" fill="#5585C5"/>
</g>
<g clip-path="url(#clip3_338_211)">
<path d="M8.41024 22.7646C11.3594 22.7646 13.7502 20.3761 13.7502 17.4296C13.7502 14.4832 11.3594 12.0946 8.41024 12.0946C5.46104 12.0946 3.07024 14.4832 3.07024 17.4296C3.07024 20.3761 5.46104 22.7646 8.41024 22.7646Z" fill="#F4F4F4"/>
</g>
<defs>
<clipPath id="clip0_338_211">
<rect width="21.89" height="10.67" fill="white" transform="matrix(-1 0 0 -1 39.1403 22.7646)"/>
</clipPath>
<clipPath id="clip1_338_211">
<rect width="26.84" height="10.67" fill="white" transform="matrix(-1 0 0 -1 27.0002 11.4248)"/>
</clipPath>
<clipPath id="clip2_338_211">
<rect width="10.67" height="10.67" fill="white" transform="matrix(-1 0 0 -1 38.3702 11.4248)"/>
</clipPath>
<clipPath id="clip3_338_211">
<rect width="10.67" height="10.67" fill="white" transform="matrix(-1 0 0 -1 13.7502 22.7646)"/>
</clipPath>
</defs>
</svg>
